<?xml version="1.0" standalone="no"?>
<!DOCTYPE svg PUBLIC "-//W3C//DTD SVG 20010904//EN"
  "http://www.w3.org/TR/2001/REC-SVG-20010904/DTD/svg10.dtd">
<svg version="1.0" xmlns="http://www.w3.org/2000/svg"
     width="340.000000pt" height="364.000000pt" viewBox="0 0 340.000000 364.000000"
     preserveAspectRatio="xMidYMid meet">
  <g transform="translate(0.000000,364.000000) scale(0.100000,-0.100000)"
     fill="#000000" stroke="none">
    <path d="M1281 2781 c-11 -32 -21 -65 -21 -72 0 -8 -8 -39 -19 -68 -17 -50
-21 -54 -72 -73 -30 -10 -67 -23 -84 -27 -51 -13 -95 -41 -95 -59 0 -16 87
-62 117 -62 7 0 36 -11 66 -24 49 -22 54 -26 69 -77 60 -195 61 -199 79 -199
23 0 37 27 60 110 31 116 43 150 52 150 4 0 27 9 49 20 23 11 47 20 54 20 7 0
35 10 63 23 64 28 67 50 9 76 -76 34 -153 61 -171 61 -11 0 -17 8 -17 21 0 11
-4 28 -10 38 -5 10 -19 53 -30 97 -23 86 -34 104 -60 104 -12 0 -24 -18 -39
-59z"/>
    <path d="M2375 2760 c-4 -6 -19 -48 -34 -93 l-27 -82 -102 -33 c-97 -32 -102
-34 -102 -61 0 -32 3 -33 129 -73 l74 -23 31 -90 c30 -86 32 -90 61 -90 29 0
31 4 61 90 l31 90 74 23 c126 39 129 41 129 73 0 27 -5 29 -102 61 l-101 33
-31 90 c-28 81 -34 90 -58 93 -14 2 -29 -2 -33 -8z"/>
    <path d="M1167 1542 l-617 -617 140 -140 140 -140 627 628 628 627 -130 130
c-81 81 -137 130 -150 130 -13 0 -229 -209 -638 -618z"/>
    <path d="M2475 1913 c-40 -143 -33 -133 -118 -165 -71 -27 -77 -32 -77 -58 0
-26 6 -31 77 -58 85 -33 78 -23 118 -164 14 -54 18 -58 45 -58 28 0 30 4 50
73 12 39 24 83 28 95 6 18 26 31 85 54 65 25 77 33 77 53 0 29 -12 39 -90 68
-48 18 -66 30 -71 48 -4 13 -17 57 -29 97 -20 68 -22 72 -50 72 -27 0 -31 -4
-45 -57z"/>
  </g>
</svg>
